#!OML:ASF F:\VICON\USERDATA\INSTALL\rory3\rory3.ASF
:FULLY-SPECIFIED
:DEGREES
273
root -0.149094 17.9303 -0.373466 2.82278 -10.5196 2.61214
lowerback -1.00461 -1.69153 -4.71073
upperback -1.99936 -2.23087 2.81283
thorax -1.20678 -1.03613 5.55434
lowerneck -33.3196 -0.900989 -7.93309
upperneck 2.21016 1.09585 6.50771
head 5.53705 0.997287 3.57782
rclavicle -2.79044e-014 6.36111e-015
rhumerus -33.1884 -1.16149 -79.5459
rradius 29.4881
rwrist 20.6049
rhand -18.2509 8.65465
rfingers 7.12502
rthumb 8.02814 -21.1729
lclavicle -2.79044e-014 6.36111e-015
lhumerus 57.1064 9.82427 48.9295
lradius 99.2142
lwrist -17.6531
lhand -46.9216 21.2409
lfingers 7.12502
lthumb -19.6319 50.2696
rfemur -7.88795 8.75428 13.7322
rtibia 26.5859
rfoot -18.296 -2.67313
rtoes 3.40596
lfemur 3.26393 -1.98653 -23.3495
ltibia 8.70414
lfoot -10.1079 6.49819
ltoes -13.7639
274
root -0.149491 17.9317 -0.372147 2.83853 -10.5504 2.53683
lowerback -0.978854 -1.68417 -4.63675
upperback -2.02396 -2.22203 2.82929
thorax -1.24972 -1.03072 5.53096
lowerneck -33.386 -0.932194 -8.01968
upperneck 2.33117 1.08384 6.57593
head 5.5862 0.996735 3.61569
rclavicle 4.55962e-015 -1.11319e-014
rhumerus -33.2181 -1.13282 -79.5463
rradius 29.5573
rwrist 20.4701
rhand -18.1026 8.68197
rfingers 7.12502
rthumb 8.17131 -21.14
lclavicle 4.55962e-015 -1.11319e-014
lhumerus 57.039 9.79835 48.924
lradius 99.2662
lwrist -17.6951
lhand -46.8775 21.3113
lfingers 7.12502
lthumb -19.5895 50.3444
rfemur -7.88789 8.7962 13.8133
rtibia 26.5759
rfoot -18.3002 -2.64751
rtoes 3.64223
lfemur 3.20667 -1.95235 -23.265
ltibia 8.78087
lfoot -10.1903 6.47396
ltoes -13.3392
275
root -0.150411 17.9315 -0.371607 2.85105 -10.5745 2.51112
lowerback -0.983594 -1.68373 -4.61332
upperback -2.02596 -2.22131 2.82552
thorax -1.25015 -1.03065 5.51355
lowerneck -33.5062 -0.941401 -8.05011
upperneck 2.49138 1.08075 6.64579
head 5.655 1.0019 3.64789
rclavicle -9.3553e-015 7.95139e-016
rhumerus -33.1377 -1.15641 -79.5448
rradius 29.4987
rwrist 20.4888
rhand -17.9078 8.59149
rfingers 7.12502
rthumb 8.35934 -21.2231
lclavicle -9.3553e-015 7.95139e-016
lhumerus 56.9667 9.77765 48.8151
lradius 99.2912
lwrist -17.515
lhand -47.1214 21.2153
lfingers 7.12502
lthumb -19.824 50.2243
rfemur -7.88783 8.82717 13.8436
rtibia 26.5582
rfoot -18.2944 -2.62567
rtoes 3.86811
lfemur 3.18305 -1.92713 -23.2362
ltibia 8.87008
lfoot -10.2056 6.47825
ltoes -13.7326
276
root -0.151297 17.9309 -0.371442 2.85203 -10.5743 2.54187
lowerback -0.981794 -1.69308 -4.65956
upperback -2.02471 -2.23394 2.8165
thorax -1.247 -1.03653 5.53037
lowerneck -33.4852 -0.935933 -8.09022
upperneck 2.45515 1.09166 6.73968
head 5.63977 1.01553 3.68719
rclavicle -1.86609e-014 9.54166e-015
rhumerus -33.0892 -1.13845 -79.5453
rradius 29.5095
rwrist 20.4611
rhand -17.8064 8.48752
rfingers 7.12502
rthumb 8.45717 -21.3231
lclavicle -1.86609e-014 9.54166e-015
lhumerus 56.9076 9.74398 48.7237
lradius 99.2527
lwrist -17.3017
lhand -47.4397 20.9703
lfingers 7.12502
lthumb -20.1299 49.9475
rfemur -7.88287 8.81964 13.8077
rtibia 26.5596
rfoot -18.3306 -2.5594
rtoes 4.27019
lfemur 3.15466 -1.9286 -23.2704
ltibia 8.95832
lfoot -10.2245 6.50325
ltoes -14.259
277
root -0.152452 17.9312 -0.370171 2.85458 -10.5356 2.53576
lowerback -0.99916 -1.71615 -4.65932
upperback -1.99732 -2.26406 2.80434
thorax -1.20548 -1.05361 5.51597
lowerneck -33.5709 -0.92669 -8.04012
upperneck 2.50865 1.09175 6.71212
head 5.66844 1.01438 3.67184
rclavicle -1.8077e-014 -1.11319e-014
rhumerus -33.0443 -1.07504 -79.5947
rradius 29.5706
rwrist 20.3946
rhand -17.8702 8.43841
rfingers 7.12502
rthumb 8.39561 -21.3747
lclavicle -1.8077e-014 -1.11319e-014
lhumerus 56.9148 9.77242 48.7393
lradius 99.2243
lwrist -17.4444
lhand -47.6292 20.5784
lfingers 7.12502
lthumb -20.312 49.5363
rfemur -7.86736 8.8095 13.8227
rtibia 26.5781
rfoot -18.3618 -2.58587
rtoes 4.17367
lfemur 3.13155 -1.96662 -23.2591
ltibia 9.00473
lfoot -10.2358 6.50343
ltoes -14.2483
